<svg width="20" height="20" viewBox="0 0 20 20" fill="none" xmlns="http://www.w3.org/2000/svg">
<path d="M5 5.00012V8.50012M15 5.00012V8.50012M14.5 12.0001H16.5C17.3284 12.0001 18 11.3286 18 10.5001V3.50012C18 2.6717 17.3284 2.00012 16.5 2.00012H3.5C2.67157 2.00012 2 2.67169 2 3.50012V10.5001C2 11.3286 2.67157 12.0001 3.5 12.0001H5.5M12.6371 15.3621L9.9992 17.9999L7.17078 15.1715M9.9992 17.9999L9.99932 12.2147M12 7.00012C12 8.10469 11.1046 9.00012 10 9.00012C8.89543 9.00012 8 8.10469 8 7.00012C8 5.89555 8.89543 5.00012 10 5.00012C11.1046 5.00012 12 5.89555 12 7.00012Z" stroke="#808080" stroke-width="1.8" stroke-linecap="round" stroke-linejoin="round"/>
</svg>
