<svg width="12" height="12" viewBox="0 0 12 12" fill="none" xmlns="http://www.w3.org/2000/svg">
<path fill-rule="evenodd" clip-rule="evenodd" d="M5.45761 1.17257C5.78779 0.959405 6.21221 0.959405 6.54239 1.17257L10.0424 3.43216C10.3277 3.61634 10.5 3.93271 10.5 4.27228V4.74994C10.5 5.16415 10.1642 5.49994 9.75 5.49994H9.5L9.5 8.49994H10C10.2761 8.49994 10.5 8.72379 10.5 8.99994C10.5 9.27608 10.2761 9.49994 10 9.49994H2C1.72386 9.49994 1.5 9.27608 1.5 8.99994C1.5 8.72379 1.72386 8.49994 2 8.49994H2.5L2.5 5.49994H2.25C1.83579 5.49994 1.5 5.16415 1.5 4.74994V4.27228C1.5 3.93271 1.67233 3.61634 1.95761 3.43216L5.45761 1.17257ZM3.5 5.49994L3.5 8.49994H4.5L4.5 5.49994H3.5ZM2.5 4.49994V4.27228L6 2.0127L9.5 4.27228V4.49994H2.5ZM5.5 5.49994L5.5 8.49994H6.5L6.5 5.49994H5.5ZM7.5 5.49994L7.5 8.49994H8.5L8.5 5.49994H7.5ZM1 10.4999C1 10.2238 1.22386 9.99994 1.5 9.99994H10.5C10.7761 9.99994 11 10.2238 11 10.4999C11 10.7761 10.7761 10.9999 10.5 10.9999H1.5C1.22386 10.9999 1 10.7761 1 10.4999Z" fill="#101828"/>
</svg>
